<svg width="52" height="52" viewBox="0 0 52 52" fill="none" xmlns="http://www.w3.org/2000/svg">
    <rect width="52" height="52" rx="8" fill="#9719AA"/>
    <path d="M26 39.3337C18.6362 39.3337 12.6667 33.3641 12.6667 26.0003C12.6667 18.6365 18.6362 12.667 26 12.667C33.3638 12.667 39.3334 18.6365 39.3334 26.0003C39.3334 33.3641 33.3638 39.3337 26 39.3337ZM26 36.667C31.8911 36.667 36.6667 31.8914 36.6667 26.0003C36.6667 20.1093 31.8911 15.3337 26 15.3337C20.109 15.3337 15.3334 20.1093 15.3334 26.0003C15.3334 31.8914 20.109 36.667 26 36.667ZM27.3334 26.0003H32.6667V28.667H24.6667V19.3337H27.3334V26.0003Z" fill="#FBFCFE"/>
</svg>
