<svg width="42" height="42" viewBox="0 0 42 42" fill="none" xmlns="http://www.w3.org/2000/svg">
    <rect width="42" height="42" rx="21" fill="#EA4A0B"/>
    <path d="M11 27H18V29H11V27ZM11 20H20V22H11V20ZM11 13H31V15H11V13ZM29.674 22.0251L30.8301 21.634L31.8301 23.366L30.914 24.1711C30.9704 24.4386 31 24.7158 31 25C31 25.2842 30.9704 25.5614 30.914 25.8289L31.8301 26.634L30.8301 28.366L29.674 27.9749C29.2635 28.3441 28.7763 28.6295 28.2391 28.8044L28 30H26L25.7609 28.8044C25.2237 28.6295 24.7365 28.3441 24.326 27.9749L23.1699 28.366L22.1699 26.634L23.086 25.8289C23.0296 25.5614 23 25.2842 23 25C23 24.7158 23.0296 24.4386 23.086 24.1711L22.1699 23.366L23.1699 21.634L24.326 22.0251C24.7365 21.6559 25.2237 21.3705 25.7609 21.1956L26 20H28L28.2391 21.1956C28.7763 21.3705 29.2635 21.6559 29.674 22.0251ZM27 27C28.1046 27 29 26.1046 29 25C29 23.8954 28.1046 23 27 23C25.8954 23 25 23.8954 25 25C25 26.1046 25.8954 27 27 27Z" fill="white"/>
</svg>
