<svg width="52" height="52" viewBox="0 0 52 52" fill="none" xmlns="http://www.w3.org/2000/svg">
<rect width="52" height="52" rx="8" fill="#1942AA"/>
<path d="M26.0005 31.333C28.946 31.333 31.3339 28.9451 31.3339 25.9997C31.3339 23.0542 28.946 20.6663 26.0005 20.6663C23.055 20.6663 20.6671 23.0542 20.6671 25.9997C20.6671 28.9451 23.055 31.333 26.0005 31.333ZM38.0065 15.3369H14.0065C13.2701 15.3369 12.6732 15.9339 12.6732 16.6702V35.3369C12.6732 36.0733 13.2701 36.6702 14.0065 36.6702H38.0065C38.7429 36.6702 39.3398 36.0733 39.3398 35.3369V16.6702C39.3398 15.9339 38.7429 15.3369 38.0065 15.3369ZM15.3398 30.8614V21.138C16.8409 20.689 18.0245 19.5049 18.4727 18.0036H33.5283C33.9777 19.5089 35.1664 20.6953 36.6732 21.1415V30.8578C35.1638 31.3047 33.9736 32.4945 33.5259 34.0035H18.475C18.0286 32.4986 16.8435 31.3111 15.3398 30.8614Z" fill="#FBFCFE"/>
</svg>
