<svg width="42" height="42" viewBox="0 0 42 42" fill="none" xmlns="http://www.w3.org/2000/svg">
    <rect width="42" height="42" rx="21" fill="#A30BEA"/>
    <path d="M14 13.6043V22.7889C14 24.1263 14.6684 25.3752 15.7812 26.1171L21 29.5963L26.2188 26.1171C27.3316 25.3752 28 24.1263 28 22.7889V13.6043L21 12.0488L14 13.6043ZM12.7831 11.826L21 10L29.2169 11.826C29.6745 11.9277 30 12.3335 30 12.8022V22.7889C30 24.795 28.9974 26.6684 27.3282 27.7812L21 32L14.6718 27.7812C13.0026 26.6684 12 24.795 12 22.7889V12.8022C12 12.3335 12.3255 11.9277 12.7831 11.826ZM21 22.5L18.0611 24.0451L18.6224 20.7725L16.2447 18.4549L19.5305 17.9775L21 15L22.4695 17.9775L25.7553 18.4549L23.3776 20.7725L23.9389 24.0451L21 22.5Z" fill="white"/>
</svg>
