<svg width="20" height="20" viewBox="0 0 20 20" fill="none" xmlns="http://www.w3.org/2000/svg">
    <rect width="20" height="20" rx="10" fill="#EDF0F7"/>
    <path d="M13.0155 12.3084L15.1568 14.4497L14.4497 15.1568L12.3084 13.0155C11.5385 13.6315 10.562 14 9.5 14C7.016 14 5 11.984 5 9.5C5 7.016 7.016 5 9.5 5C11.984 5 14 7.016 14 9.5C14 10.562 13.6315 11.5385 13.0155 12.3084ZM12.0124 11.9374C12.6238 11.3073 13 10.4478 13 9.5C13 7.56625 11.4338 6 9.5 6C7.56625 6 6 7.56625 6 9.5C6 11.4338 7.56625 13 9.5 13C10.4478 13 11.3073 12.6238 11.9374 12.0124L12.0124 11.9374Z" fill="#0E121B"/>
    <path d="M13.0155 12.3084L15.1568 14.4497L14.4497 15.1568L12.3084 13.0155C11.5385 13.6315 10.562 14 9.5 14C7.016 14 5 11.984 5 9.5C5 7.016 7.016 5 9.5 5C11.984 5 14 7.016 14 9.5C14 10.562 13.6315 11.5385 13.0155 12.3084ZM12.0124 11.9374C12.6238 11.3073 13 10.4478 13 9.5C13 7.56625 11.4338 6 9.5 6C7.56625 6 6 7.56625 6 9.5C6 11.4338 7.56625 13 9.5 13C10.4478 13 11.3073 12.6238 11.9374 12.0124L12.0124 11.9374Z" fill="black" fill-opacity="0.2"/>
    <path d="M13.0155 12.3084L15.1568 14.4497L14.4497 15.1568L12.3084 13.0155C11.5385 13.6315 10.562 14 9.5 14C7.016 14 5 11.984 5 9.5C5 7.016 7.016 5 9.5 5C11.984 5 14 7.016 14 9.5C14 10.562 13.6315 11.5385 13.0155 12.3084ZM12.0124 11.9374C12.6238 11.3073 13 10.4478 13 9.5C13 7.56625 11.4338 6 9.5 6C7.56625 6 6 7.56625 6 9.5C6 11.4338 7.56625 13 9.5 13C10.4478 13 11.3073 12.6238 11.9374 12.0124L12.0124 11.9374Z" fill="black" fill-opacity="0.2"/>
    <path d="M13.0155 12.3084L15.1568 14.4497L14.4497 15.1568L12.3084 13.0155C11.5385 13.6315 10.562 14 9.5 14C7.016 14 5 11.984 5 9.5C5 7.016 7.016 5 9.5 5C11.984 5 14 7.016 14 9.5C14 10.562 13.6315 11.5385 13.0155 12.3084ZM12.0124 11.9374C12.6238 11.3073 13 10.4478 13 9.5C13 7.56625 11.4338 6 9.5 6C7.56625 6 6 7.56625 6 9.5C6 11.4338 7.56625 13 9.5 13C10.4478 13 11.3073 12.6238 11.9374 12.0124L12.0124 11.9374Z" fill="black" fill-opacity="0.2"/>
</svg>
